<?xml version="1.0" encoding="UTF-8" standalone="no"?>
<svg
   xmlns:dc="http://purl.org/dc/elements/1.1/"
   xmlns:cc="http://creativecommons.org/ns#"
   xmlns:rdf="http://www.w3.org/1999/02/22-rdf-syntax-ns#"
   xmlns:svg="http://www.w3.org/2000/svg"
   xmlns="http://www.w3.org/2000/svg"
   viewBox="0 0 600 133"
   height="133"
   width="600"
   xml:space="preserve"
   version="1.1"
   id="svg2"><metadata
     id="metadata8"><rdf:RDF><cc:Work
         rdf:about=""><dc:format>image/svg+xml</dc:format><dc:type
           rdf:resource="http://purl.org/dc/dcmitype/StillImage" /><dc:title></dc:title></cc:Work></rdf:RDF></metadata><defs
     id="defs6" /><g
     transform="matrix(1.25,0,0,-1.25,0,133.00001)"
     id="g10"><g
       transform="matrix(3.4296959,0,0,3.4296959,-1179.0307,-192.34488)"
       id="g8634"><g
         id="g8621"><path
           id="path278"
           style="fill:#505456;fill-opacity:1;fill-rule:nonzero;stroke:none"
           d="m 396.9646,64.6875 0,10.061 c 0,2.239 -0.98,3.331 -2.623,3.331 -1.631,0 -2.715,-1.238 -2.715,-3.331 l 0,-10.061 -3.518,0 0,10.061 c 0,2.135 -1.027,3.331 -2.686,3.331 -1.495,0 -2.653,-0.939 -2.653,-3.331 l 0,-10.061 -3.518,0 0,10.399 c 0,3.426 2.464,6.078 6.171,6.078 1.832,0 3.425,-0.802 4.444,-2.501 1.142,1.852 2.748,2.501 4.475,2.501 3.489,0 6.141,-2.471 6.141,-6.078 l 0,-10.399 -3.518,0 z" /><path
           id="path280"
           style="fill:#505456;fill-opacity:1;fill-rule:nonzero;stroke:none"
           d="m 411.2971,64.4398 c -1.173,0 -2.327,0.289 -2.931,0.555 l 0,-8.791 -3.518,0 0,18.79 c 0,3.563 2.722,6.171 6.449,6.171 3.764,0 6.421,-2.644 6.421,-6.202 l 0,-4.289 c 0,-3.722 -2.359,-6.234 -6.421,-6.234 m 2.901,10.523 c 0,1.846 -1.213,3.118 -2.901,3.118 -1.794,0 -2.931,-1.304 -2.931,-3.118 l 0,-6.82 c 0.72,-0.38 1.67,-0.616 2.931,-0.616 1.997,0 2.901,1.209 2.901,3.147 l 0,4.289 z" /><path
           id="path282"
           style="fill:#94c23d;fill-opacity:1;fill-rule:nonzero;stroke:none"
           d="m 445.6087,73.644 c -10e-4,-0.739 -0.602,-1.335 -1.34,-1.335 -0.74,0 -1.337,0.602 -1.337,1.34 0.003,0.74 0.601,1.336 1.342,1.336 0.738,-0.001 1.336,-0.601 1.335,-1.341" /><path
           id="path284"
           style="fill:#94c23d;fill-opacity:1;fill-rule:nonzero;stroke:none"
           d="m 444.2793,82.9899 6.425,-6.189 0,-12.092 -3.52,0 0,9.317 c 0,1.918 -1.291,2.994 -2.9,2.994 -1.859,0 -2.93,-1.248 -2.93,-2.994 l 0,-9.317 -3.518,0 0,12.091 6.443,6.19 z" /><path
           id="path286"
           style="fill:#505456;fill-opacity:1;fill-rule:nonzero;stroke:none"
           d="m 456.8906,82.1209 c -1.204,0 -2.254,0.988 -2.254,2.253 0,1.265 1.082,2.222 2.254,2.222 1.202,0 2.253,-0.957 2.253,-2.222 0,-1.233 -1.02,-2.253 -2.253,-2.253 m -1.758,-1.202 3.517,0 0,-16.231 -3.517,0 0,16.231 z" /><path
           id="path288"
           style="fill:#505456;fill-opacity:1;fill-rule:nonzero;stroke:none"
           d="m 463.2681,64.6875 0,21.601 3.517,0.616 0,-22.217 -3.517,0 z" /><path
           id="path290"
           style="fill:#505456;fill-opacity:1;fill-rule:nonzero;stroke:none"
           d="m 474.3763,71.691 0,-1.048 c 0,-1.707 0.875,-3.115 3.282,-3.115 2.086,0 3.789,0.42 4.63,0.769 l 0.707,-2.961 c -0.883,-0.378 -2.912,-0.897 -5.412,-0.897 -4.841,0 -6.725,2.99 -6.725,6.204 l 0,4.411 c 0,3.169 2.139,6.111 6.449,6.111 3.73,0 6.418,-2.289 6.418,-6.111 l 0,-3.363 -9.349,0 z m 5.832,3.363 c 0,1.725 -0.829,3.026 -2.871,3.026 -1.777,0 -2.961,-1.077 -2.961,-3.026 l 0,-0.493 5.832,0 0,0.493 z" /><path
           id="path292"
           style="fill:#505456;fill-opacity:1;fill-rule:nonzero;stroke:none"
           d="m 359.4702,68.8494 c -1.269,-2.809 -4.083,-4.409 -7.28,-4.409 -2.541,0 -4.682,0.817 -6.216,2.473 -1.495,1.614 -2.203,3.78 -2.203,8.026 0,2.989 0.29,4.906 0.821,6.187 1.081,2.595 3.594,4.666 7.598,4.666 3.215,0 6.042,-1.648 7.3,-4.491 l -3.17,-1.475 c -0.667,1.948 -2.234,2.85 -4.13,2.85 -1.629,0 -3.012,-0.664 -3.795,-2.08 -0.355,-0.648 -0.854,-1.922 -0.862,-5.778 -0.007,-2.915 0.408,-4.774 1.239,-5.806 0.812,-1.01 2.026,-1.455 3.418,-1.455 1.881,0 3.441,0.82 4.113,2.739 l 3.167,-1.447 z" /><path
           id="path294"
           style="fill:#505456;fill-opacity:1;fill-rule:nonzero;stroke:none"
           d="m 368.7154,81.1649 c -1.637,0 -3.607,-0.353 -5.246,-0.926 l 0.772,-2.963 c 0.97,0.381 2.772,0.804 4.332,0.804 1.978,0 2.796,-1.065 2.796,-3.087 l 0,-0.061 -3.035,0 c -3.57,0 -5.833,-1.886 -5.833,-5.196 0,-2.744 1.928,-5.296 5.455,-5.296 2.07,0 3.394,1.104 3.886,1.888 l 0.036,0 0,-1.64 3.008,0 0,10.367 c 0,3.856 -2.468,6.11 -6.171,6.11 m 0.022,-13.808 c -1.868,0 -2.646,1.064 -2.646,2.483 0,1.828 1.143,2.562 2.569,2.562 l 2.709,0 0,-2.34 c 0,-1.209 -0.812,-2.705 -2.632,-2.705" /><path
           id="path296"
           style="fill:#505456;fill-opacity:1;fill-rule:nonzero;stroke:none"
           d="m 427.2415,81.1649 c -1.638,0 -3.606,-0.353 -5.246,-0.926 l 0.773,-2.963 c 0.969,0.381 2.768,0.804 4.332,0.804 1.977,0 2.794,-1.065 2.794,-3.087 l 0,-0.061 -3.035,0 c -3.567,0 -5.833,-1.886 -5.833,-5.196 0,-2.744 1.929,-5.296 5.456,-5.296 2.071,0 3.391,1.104 3.887,1.888 l 0.034,0 0,-1.64 3.008,0 0,10.367 c 0,3.856 -2.467,6.11 -6.17,6.11 m 0.017,-13.808 c -1.863,0 -2.641,1.064 -2.641,2.483 0,1.828 1.141,2.562 2.566,2.562 l 2.711,0 0,-2.34 c 0,-1.209 -0.812,-2.705 -2.636,-2.705" /><path
           id="path298"
           style="fill:#505456;fill-opacity:1;fill-rule:nonzero;stroke:none"
           d="m 359.4702,68.8494 c -1.269,-2.809 -4.083,-4.409 -7.28,-4.409 -2.541,0 -4.682,0.817 -6.216,2.473 -1.495,1.614 -2.203,3.78 -2.203,8.026 0,2.989 0.29,4.906 0.821,6.187 1.081,2.595 3.594,4.666 7.598,4.666 3.215,0 6.042,-1.648 7.3,-4.491 l -3.17,-1.475 c -0.667,1.948 -2.234,2.85 -4.13,2.85 -1.629,0 -3.012,-0.664 -3.795,-2.08 -0.355,-0.648 -0.854,-1.922 -0.862,-5.778 -0.007,-2.915 0.408,-4.774 1.239,-5.806 0.812,-1.01 2.026,-1.455 3.418,-1.455 1.881,0 3.441,0.82 4.113,2.739 l 3.167,-1.447 z" /></g><g
         id="g8602"><path
           id="path300"
           style="fill:#505456;fill-opacity:1;fill-rule:nonzero;stroke:none"
           d="m 368.462,61.3527 0,-1.98 2.091,0 0,1.98 1.128,0 0,-5.153 -1.128,0 0,2.223 -2.091,0 0,-2.223 -1.13,0 0,5.153 1.13,0 z" /><path
           id="path302"
           style="fill:#505456;fill-opacity:1;fill-rule:nonzero;stroke:none"
           d="m 374.7957,59.8235 c 0.116,0.33 0.283,0.62 0.498,0.866 0.215,0.243 0.482,0.437 0.799,0.576 0.313,0.141 0.669,0.21 1.06,0.21 0.401,0 0.757,-0.069 1.069,-0.21 0.313,-0.139 0.577,-0.333 0.792,-0.576 0.218,-0.246 0.386,-0.536 0.497,-0.866 0.118,-0.327 0.173,-0.686 0.173,-1.069 0,-0.378 -0.055,-0.726 -0.173,-1.053 -0.111,-0.324 -0.279,-0.605 -0.497,-0.848 -0.215,-0.24 -0.479,-0.429 -0.792,-0.564 -0.312,-0.138 -0.668,-0.207 -1.069,-0.207 -0.391,0 -0.747,0.069 -1.06,0.207 -0.317,0.135 -0.584,0.324 -0.799,0.564 -0.215,0.243 -0.382,0.524 -0.498,0.848 -0.113,0.327 -0.172,0.675 -0.172,1.053 0,0.383 0.059,0.742 0.172,1.069 m 1.035,-1.702 c 0.052,-0.204 0.13,-0.39 0.243,-0.553 0.109,-0.163 0.254,-0.292 0.434,-0.394 0.176,-0.097 0.393,-0.146 0.645,-0.146 0.257,0 0.472,0.049 0.651,0.146 0.179,0.102 0.322,0.231 0.433,0.394 0.111,0.163 0.191,0.349 0.242,0.553 0.053,0.205 0.078,0.415 0.078,0.633 0,0.226 -0.025,0.446 -0.078,0.657 -0.051,0.211 -0.131,0.401 -0.242,0.564 -0.111,0.167 -0.254,0.301 -0.433,0.4 -0.179,0.099 -0.394,0.149 -0.651,0.149 -0.252,0 -0.469,-0.05 -0.645,-0.149 -0.18,-0.099 -0.325,-0.233 -0.434,-0.4 -0.113,-0.163 -0.191,-0.353 -0.243,-0.564 -0.052,-0.211 -0.076,-0.431 -0.076,-0.657 0,-0.218 0.024,-0.428 0.076,-0.633" /><path
           id="path304"
           style="fill:#505456;fill-opacity:1;fill-rule:nonzero;stroke:none"
           d="m 382.2229,60.3998 0,0.953 4.217,0 0,-0.953 -1.54,0 0,-4.2 -1.134,0 0,4.2 -1.543,0 z" /><path
           id="path306"
           style="fill:#505456;fill-opacity:1;fill-rule:nonzero;stroke:none"
           d="m 393.0507,61.3527 0,-0.953 -2.72,0 0,-1.108 2.497,0 0,-0.875 -2.497,0 0,-1.268 2.778,0 0,-0.949 -3.91,0 0,5.153 3.852,0 z" /><path
           id="path308"
           style="fill:#505456;fill-opacity:1;fill-rule:nonzero;stroke:none"
           d="m 397.1707,61.3527 0,-4.204 2.512,0 0,-0.949 -3.643,0 0,5.153 1.131,0 z" /></g><g
         id="g8609"><path
           id="path310"
           style="fill:#94c23d;fill-opacity:1;fill-rule:nonzero;stroke:none"
           d="m 417.2683,61.3552 c 0.233,0 0.438,-0.039 0.626,-0.112 0.189,-0.074 0.344,-0.176 0.475,-0.307 0.132,-0.131 0.234,-0.28 0.305,-0.452 0.069,-0.171 0.107,-0.355 0.107,-0.552 0,-0.301 -0.068,-0.564 -0.191,-0.785 -0.13,-0.222 -0.337,-0.391 -0.626,-0.505 l 0,-0.015 c 0.14,-0.04 0.257,-0.099 0.346,-0.177 0.095,-0.08 0.167,-0.171 0.226,-0.283 0.055,-0.107 0.1,-0.228 0.129,-0.357 0.024,-0.131 0.042,-0.26 0.051,-0.391 0.007,-0.082 0.01,-0.178 0.016,-0.291 0.005,-0.11 0.011,-0.22 0.024,-0.338 0.013,-0.115 0.03,-0.225 0.057,-0.33 0.027,-0.102 0.066,-0.19 0.12,-0.262 l -1.134,0 c -0.065,0.163 -0.1,0.361 -0.119,0.586 -0.013,0.223 -0.033,0.443 -0.061,0.649 -0.041,0.269 -0.122,0.467 -0.247,0.592 -0.126,0.126 -0.33,0.189 -0.618,0.189 l -1.13,0 0,-2.016 -1.138,0 0,5.157 2.782,0 z m -0.404,-2.33 c 0.261,0 0.457,0.059 0.588,0.172 0.128,0.118 0.2,0.304 0.2,0.564 0,0.25 -0.072,0.432 -0.2,0.543 -0.131,0.117 -0.327,0.172 -0.588,0.172 l -1.24,0 0,-1.451 1.24,0 z" /><path
           id="path312"
           style="fill:#94c23d;fill-opacity:1;fill-rule:nonzero;stroke:none"
           d="m 425.7227,61.3552 0,-0.955 -2.722,0 0,-1.106 2.496,0 0,-0.875 -2.496,0 0,-1.267 2.782,0 0,-0.954 -3.912,0 0,5.157 3.852,0 z" /><path
           id="path314"
           style="fill:#94c23d;fill-opacity:1;fill-rule:nonzero;stroke:none"
           d="m 429.5803,57.4682 c 0.062,-0.122 0.146,-0.219 0.253,-0.294 0.101,-0.076 0.223,-0.131 0.362,-0.167 0.139,-0.036 0.283,-0.053 0.432,-0.053 0.101,0 0.209,0.01 0.322,0.025 0.118,0.016 0.223,0.048 0.328,0.098 0.101,0.048 0.182,0.115 0.248,0.196 0.068,0.086 0.102,0.195 0.102,0.323 0,0.14 -0.048,0.254 -0.135,0.342 -0.088,0.086 -0.202,0.159 -0.349,0.217 -0.145,0.056 -0.307,0.106 -0.491,0.149 -0.181,0.044 -0.367,0.095 -0.551,0.146 -0.193,0.047 -0.383,0.107 -0.568,0.177 -0.179,0.067 -0.342,0.158 -0.487,0.27 -0.147,0.11 -0.266,0.25 -0.351,0.418 -0.091,0.164 -0.136,0.365 -0.136,0.603 0,0.263 0.059,0.494 0.168,0.689 0.118,0.196 0.262,0.358 0.447,0.485 0.184,0.133 0.39,0.231 0.625,0.292 0.229,0.063 0.461,0.093 0.692,0.093 0.267,0 0.528,-0.03 0.776,-0.091 0.245,-0.057 0.467,-0.158 0.659,-0.294 0.19,-0.131 0.346,-0.304 0.464,-0.512 0.109,-0.21 0.167,-0.463 0.167,-0.762 l -1.104,0 c -0.007,0.155 -0.041,0.282 -0.092,0.383 -0.058,0.102 -0.131,0.18 -0.222,0.238 -0.092,0.059 -0.196,0.097 -0.314,0.123 -0.121,0.026 -0.245,0.036 -0.386,0.036 -0.091,0 -0.183,-0.01 -0.275,-0.03 -0.09,-0.019 -0.175,-0.051 -0.249,-0.097 -0.072,-0.05 -0.134,-0.113 -0.181,-0.185 -0.051,-0.069 -0.074,-0.163 -0.074,-0.274 0,-0.098 0.022,-0.181 0.06,-0.245 0.035,-0.066 0.113,-0.12 0.226,-0.175 0.112,-0.05 0.272,-0.104 0.471,-0.158 0.198,-0.052 0.455,-0.119 0.779,-0.2 0.1,-0.022 0.232,-0.055 0.404,-0.107 0.169,-0.051 0.338,-0.132 0.508,-0.241 0.165,-0.112 0.312,-0.259 0.433,-0.445 0.127,-0.185 0.186,-0.423 0.186,-0.712 0,-0.237 -0.045,-0.456 -0.133,-0.657 -0.092,-0.203 -0.229,-0.377 -0.411,-0.526 -0.18,-0.147 -0.402,-0.261 -0.671,-0.342 -0.268,-0.082 -0.579,-0.122 -0.927,-0.122 -0.286,0 -0.56,0.034 -0.83,0.104 -0.269,0.069 -0.5,0.177 -0.706,0.329 -0.204,0.145 -0.365,0.337 -0.485,0.568 -0.124,0.231 -0.18,0.505 -0.176,0.826 l 1.098,0 c 0,-0.174 0.034,-0.322 0.094,-0.441" /><path
           id="path316"
           style="fill:#94c23d;fill-opacity:1;fill-rule:nonzero;stroke:none"
           d="m 435.1647,60.4008 0,0.955 4.221,0 0,-0.955 -1.546,0 0,-4.203 -1.128,0 0,4.203 -1.547,0 z" /><path
           id="path318"
           style="fill:#94c23d;fill-opacity:1;fill-rule:nonzero;stroke:none"
           d="m 444.0547,61.3552 1.927,-5.157 -1.179,0 -0.389,1.147 -1.926,0 -0.404,-1.147 -1.14,0 1.946,5.157 1.165,0 z m 0.062,-3.165 -0.648,1.893 -0.013,0 -0.674,-1.893 1.335,0 z" /><path
           id="path320"
           style="fill:#94c23d;fill-opacity:1;fill-rule:nonzero;stroke:none"
           d="m 452.3861,56.5901 c -0.388,-0.339 -0.927,-0.507 -1.616,-0.507 -0.694,0 -1.238,0.165 -1.623,0.502 -0.379,0.339 -0.571,0.857 -0.571,1.562 l 0,3.208 1.132,0 0,-3.208 c 0,-0.139 0.016,-0.277 0.035,-0.411 0.023,-0.135 0.073,-0.255 0.151,-0.358 0.081,-0.105 0.188,-0.186 0.323,-0.254 0.138,-0.063 0.322,-0.097 0.553,-0.097 0.404,0 0.687,0.089 0.839,0.269 0.154,0.184 0.229,0.467 0.229,0.851 l 0,3.208 1.134,0 0,-3.208 c 0,-0.701 -0.196,-1.217 -0.586,-1.557" /><path
           id="path322"
           style="fill:#94c23d;fill-opacity:1;fill-rule:nonzero;stroke:none"
           d="m 458.8915,61.3552 c 0.232,0 0.441,-0.039 0.628,-0.112 0.184,-0.074 0.345,-0.176 0.473,-0.307 0.133,-0.131 0.237,-0.28 0.306,-0.452 0.071,-0.171 0.102,-0.355 0.102,-0.552 0,-0.301 -0.062,-0.564 -0.188,-0.785 -0.126,-0.222 -0.336,-0.391 -0.626,-0.505 l 0,-0.015 c 0.142,-0.04 0.26,-0.099 0.351,-0.177 0.09,-0.08 0.167,-0.171 0.221,-0.283 0.056,-0.107 0.098,-0.228 0.127,-0.357 0.028,-0.131 0.045,-0.26 0.054,-0.391 0.005,-0.082 0.011,-0.178 0.015,-0.291 0.006,-0.11 0.013,-0.22 0.024,-0.338 0.016,-0.115 0.034,-0.225 0.054,-0.33 0.033,-0.102 0.072,-0.19 0.124,-0.262 l -1.137,0 c -0.058,0.163 -0.101,0.361 -0.113,0.586 -0.015,0.223 -0.037,0.443 -0.069,0.649 -0.034,0.269 -0.117,0.467 -0.244,0.592 -0.122,0.126 -0.325,0.189 -0.616,0.189 l -1.133,0 0,-2.016 -1.133,0 0,5.157 2.78,0 z m -0.4,-2.33 c 0.26,0 0.453,0.059 0.584,0.172 0.132,0.118 0.194,0.304 0.194,0.564 0,0.25 -0.062,0.432 -0.194,0.543 -0.131,0.117 -0.324,0.172 -0.584,0.172 l -1.247,0 0,-1.451 1.247,0 z" /><path
           id="path324"
           style="fill:#94c23d;fill-opacity:1;fill-rule:nonzero;stroke:none"
           d="m 466.0594,61.3552 1.933,-5.157 -1.177,0 -0.387,1.147 -1.93,0 -0.406,-1.147 -1.141,0 1.95,5.157 1.158,0 z m 0.07,-3.165 -0.654,1.893 -0.009,0 -0.671,-1.893 1.334,0 z" /><path
           id="path326"
           style="fill:#94c23d;fill-opacity:1;fill-rule:nonzero;stroke:none"
           d="m 471.7344,61.3552 2.155,-3.463 0.014,0 0,3.463 1.06,0 0,-5.157 -1.135,0 -2.143,3.451 -0.018,0 0,-3.451 -1.059,0 0,5.157 1.126,0 z" /><path
           id="path328"
           style="fill:#94c23d;fill-opacity:1;fill-rule:nonzero;stroke:none"
           d="m 477.7225,60.4008 0,0.955 4.223,0 0,-0.955 -1.548,0 0,-4.203 -1.131,0 0,4.203 -1.544,0 z" /></g></g></g></svg>