<?xml version="1.0" encoding="utf-8"?>
<!-- Generator: Adobe Illustrator 15.0.0, SVG Export Plug-In . SVG Version: 6.00 Build 0)  -->
<!DOCTYPE svg PUBLIC "-//W3C//DTD SVG 1.1//EN" "http://www.w3.org/Graphics/SVG/1.1/DTD/svg11.dtd">
<svg version="1.1" id="Layer_1" xmlns="http://www.w3.org/2000/svg" xmlns:xlink="http://www.w3.org/1999/xlink" x="0px" y="0px"
	 width="446.259px" height="218.495px" viewBox="0 0 446.259 218.495" enable-background="new 0 0 446.259 218.495"
	 xml:space="preserve">
<rect x="59.106" y="68.252" fill-rule="evenodd" clip-rule="evenodd" fill="#565756" width="322.396" height="1.59"/>
<rect x="187.747" y="130.538" fill-rule="evenodd" clip-rule="evenodd" fill="#565756" width="65.115" height="4.009"/>
<path fill-rule="evenodd" clip-rule="evenodd" fill="#565756" d="M210.634,111.858h3.903V78.492h-3.903V111.858z M228.583,111.858
	h3.827V78.492h-3.827V111.858z M246.458,111.858h2.556V78.492h-2.556V111.858z M194.107,111.858h2.479V78.492h-2.479V111.858z
	 M191.557,113.191h58.729v-36.04h-58.729V113.191z"/>
<path fill-rule="evenodd" clip-rule="evenodd" fill="#565756" d="M243.772,59.977L220.308,36.15l-23.472,23.827 M333.503,29.979
	v1.596H220.469l30.454,31.845h-61.235l30.46-31.845H107.106v-1.596H333.503z"/>
<g>
	<defs>
		<rect id="SVGID_1_" x="-81.81" y="-34.904" width="610.867" height="296.503"/>
	</defs>
	<clipPath id="SVGID_2_">
		<use xlink:href="#SVGID_1_"  overflow="visible"/>
	</clipPath>
	<path clip-path="url(#SVGID_2_)" fill-rule="evenodd" clip-rule="evenodd" fill="#565756" d="M220.08,56.131v-7.544
		c-1.175,0.07-2.327,0.462-3.375,1.1"/>
	<path clip-path="url(#SVGID_2_)" fill-rule="evenodd" clip-rule="evenodd" fill="#565756" d="M227.532,53.255
		c-0.652-1.269-1.547-2.351-2.615-3.15l-3.48,6.629"/>
	<path clip-path="url(#SVGID_2_)" fill-rule="evenodd" clip-rule="evenodd" fill="#565756" d="M220.874,48.587v7.534l3.377-6.432
		C223.195,49.044,222.043,48.655,220.874,48.587"/>
	<path clip-path="url(#SVGID_2_)" fill-rule="evenodd" clip-rule="evenodd" fill="#565756" d="M213.419,53.255l6.084,3.479
		l-3.477-6.623C214.96,50.911,214.075,51.991,213.419,53.255"/>
	<path clip-path="url(#SVGID_2_)" fill-rule="evenodd" clip-rule="evenodd" fill="#565756" d="M228.616,57.585
		c0-1.321-0.272-2.548-0.732-3.655l-6.39,3.655"/>
	<path clip-path="url(#SVGID_2_)" fill-rule="evenodd" clip-rule="evenodd" fill="#565756" d="M212.338,57.585h7.11l-6.384-3.646
		C212.606,55.037,212.338,56.27,212.338,57.585"/>
	
		<rect x="120.002" y="79.815" clip-path="url(#SVGID_2_)" fill-rule="evenodd" clip-rule="evenodd" fill="#565756" width="11.494" height="22.693"/>
	
		<rect x="142.987" y="79.815" clip-path="url(#SVGID_2_)" fill-rule="evenodd" clip-rule="evenodd" fill="#565756" width="11.494" height="22.693"/>
	
		<rect x="165.975" y="79.815" clip-path="url(#SVGID_2_)" fill-rule="evenodd" clip-rule="evenodd" fill="#565756" width="11.489" height="22.693"/>
	
		<rect x="309.536" y="79.815" clip-path="url(#SVGID_2_)" fill-rule="evenodd" clip-rule="evenodd" fill="#565756" width="11.489" height="22.693"/>
	
		<rect x="286.55" y="79.815" clip-path="url(#SVGID_2_)" fill-rule="evenodd" clip-rule="evenodd" fill="#565756" width="11.493" height="22.693"/>
	
		<rect x="263.563" y="79.815" clip-path="url(#SVGID_2_)" fill-rule="evenodd" clip-rule="evenodd" fill="#565756" width="11.494" height="22.693"/>
	
		<rect x="343.825" y="79.814" clip-path="url(#SVGID_2_)" fill-rule="evenodd" clip-rule="evenodd" fill="#565756" width="18.58" height="19.423"/>
	
		<rect x="77.941" y="77.164" clip-path="url(#SVGID_2_)" fill-rule="evenodd" clip-rule="evenodd" fill="#565756" width="18.58" height="19.423"/>
	<path clip-path="url(#SVGID_2_)" fill-rule="evenodd" clip-rule="evenodd" fill="#565756" d="M59.102,130.962v1.313
		c35.667-5.813,93.269-9.598,158.291-9.598c68.699,0,129.101,4.22,164.117,10.605v-2.142c-35.34-6.15-94.585-10.184-161.737-10.184
		C153.276,120.958,94.55,124.919,59.102,130.962"/>
	<path clip-path="url(#SVGID_2_)" fill="#565756" d="M372.427,26.216C333.5,11.328,279.879,2.165,220.661,2.16
		c-59.222,0.005-112.84,9.168-151.773,24.056C30.041,41.123,5.46,61.691,5.341,85.387c0.119,23.689,24.699,44.269,63.547,59.164
		c38.933,14.888,92.551,24.058,151.773,24.058c59.218,0,112.839-9.17,151.766-24.058c38.846-14.896,63.419-35.475,63.545-59.164
		C435.846,61.691,411.272,41.123,372.427,26.216 M371.442,141.973c-38.5,14.739-91.848,23.893-150.781,23.88
		c-58.936,0.013-112.288-9.141-150.789-23.88C31.292,127.256,7.977,106.896,8.1,85.387C7.977,63.875,31.292,43.522,69.872,28.801
		c38.489-14.73,91.823-23.882,150.736-23.882h0.053c58.934-0.004,112.281,9.147,150.781,23.882
		c38.578,14.721,61.887,35.074,61.77,56.586C433.329,106.896,410.021,127.256,371.442,141.973"/>
	<path clip-path="url(#SVGID_2_)" fill="#565756" d="M2.168,200.728h5.9c2.734,0,4.852,0.73,6.352,2.19
		c1.499,1.461,2.254,3.518,2.254,6.17c0,2.67-0.755,4.736-2.254,6.204c-1.5,1.47-3.618,2.202-6.352,2.202h-5.9V200.728z
		 M7.928,215.47c4.156,0,6.231-2.127,6.231-6.382c0-4.223-2.075-6.336-6.231-6.336H4.608v12.718H7.928z"/>
	<polygon clip-path="url(#SVGID_2_)" fill="#565756" points="46.937,200.728 49.332,200.728 43.381,217.495 41.342,217.495 
		36.793,204.543 32.219,217.495 30.182,217.495 24.256,200.728 26.747,200.728 31.271,214.057 35.939,200.728 37.742,200.752 
		42.337,214.127 	"/>
	<path clip-path="url(#SVGID_2_)" fill="#565756" d="M60.596,216.634c-1.177-0.696-2.084-1.69-2.722-2.978
		c-0.642-1.287-0.961-2.802-0.961-4.545c0-1.758,0.314-3.281,0.948-4.569c0.63-1.286,1.542-2.274,2.727-2.966
		c1.184-0.691,2.573-1.037,4.168-1.037c1.612,0,3.008,0.346,4.184,1.037c1.177,0.691,2.08,1.68,2.714,2.966
		c0.63,1.288,0.949,2.803,0.949,4.545c0,1.759-0.319,3.282-0.949,4.569c-0.634,1.287-1.541,2.281-2.726,2.978
		c-1.185,0.7-2.577,1.05-4.172,1.05C63.162,217.684,61.772,217.334,60.596,216.634 M68.705,213.986
		c0.941-1.147,1.409-2.779,1.409-4.899c0-2.103-0.468-3.724-1.409-4.861c-0.94-1.139-2.258-1.707-3.948-1.707
		c-1.691,0-3,0.568-3.932,1.707c-0.932,1.138-1.401,2.759-1.401,4.861c0,2.12,0.473,3.752,1.413,4.899
		c0.936,1.145,2.246,1.719,3.92,1.719C66.446,215.705,67.765,215.131,68.705,213.986 M65.54,199.292h-1.587l2.416-3.627h2.464
		L65.54,199.292z"/>
	<path clip-path="url(#SVGID_2_)" fill="#565756" d="M95.425,217.494h-2.582l-2.108-5.581c-0.224-0.596-0.547-1.009-0.974-1.236
		c-0.427-0.228-1.011-0.34-1.752-0.34h-3.701v7.157h-2.415v-16.767h6.944c1.848,0,3.265,0.409,4.255,1.225
		c0.986,0.817,1.479,1.986,1.479,3.51c0,1.099-0.29,2.032-0.874,2.802c-0.588,0.769-1.417,1.311-2.49,1.625
		c0.978,0.173,1.69,0.864,2.134,2.072L95.425,217.494z M88.551,208.382c1.235,0,2.15-0.239,2.751-0.72
		c0.601-0.479,0.899-1.196,0.899-2.154c0-0.957-0.294-1.667-0.886-2.13c-0.593-0.464-1.513-0.695-2.764-0.695h-4.243v5.699H88.551z"
		/>
	<polygon clip-path="url(#SVGID_2_)" fill="#565756" points="137.988,200.728 140.383,200.728 134.433,217.495 132.395,217.495 
		127.845,204.543 123.271,217.495 121.233,217.495 115.308,200.728 117.798,200.728 122.322,214.057 126.992,200.728 
		128.794,200.752 133.389,214.127 	"/>
	<polygon clip-path="url(#SVGID_2_)" fill="#565756" points="165.242,217.494 165.242,202.752 159.529,202.752 159.529,200.728 
		173.417,200.728 173.417,202.752 167.707,202.752 167.707,217.494 	"/>
	<path clip-path="url(#SVGID_2_)" fill="#565756" d="M183.667,216.634c-1.177-0.696-2.084-1.69-2.727-2.978
		c-0.637-1.287-0.957-2.802-0.957-4.545c0-1.758,0.315-3.281,0.945-4.568c0.634-1.287,1.541-2.276,2.726-2.967
		c1.185-0.691,2.577-1.037,4.173-1.037c1.611,0,3.004,0.346,4.18,1.037c1.177,0.69,2.084,1.68,2.714,2.967
		c0.634,1.287,0.949,2.802,0.949,4.545c0,1.758-0.315,3.281-0.949,4.568c-0.63,1.287-1.537,2.281-2.722,2.978
		c-1.185,0.7-2.577,1.049-4.172,1.049C186.231,217.683,184.844,217.334,183.667,216.634 M191.771,213.986
		c0.94-1.146,1.413-2.779,1.413-4.898c0-2.104-0.473-3.725-1.413-4.863c-0.94-1.137-2.254-1.707-3.944-1.707
		c-1.691,0-3.004,0.57-3.936,1.707c-0.933,1.139-1.397,2.76-1.397,4.863c0,2.119,0.468,3.752,1.409,4.898
		c0.941,1.146,2.25,1.719,3.924,1.719C189.517,215.705,190.831,215.132,191.771,213.986"/>
	<polygon clip-path="url(#SVGID_2_)" fill="#565756" points="219.158,200.728 221.125,200.728 221.125,217.495 218.921,217.495 
		218.921,205.979 213.92,217.495 212.239,217.495 207.163,206.05 207.188,217.495 204.983,217.495 204.983,200.728 206.952,200.728 
		213.087,214.575 	"/>
	<path clip-path="url(#SVGID_2_)" fill="#565756" d="M243.896,217.495l-1.802-4.145h-8.531l-1.798,4.145h-2.49l7.512-16.768h2.063
		l7.536,16.768H243.896z M234.393,211.42h6.873l-3.436-7.983L234.393,211.42z"/>
	<path clip-path="url(#SVGID_2_)" fill="#565756" d="M256.256,217.165c-1.081-0.345-2.018-0.864-2.809-1.555l0.878-1.79
		c0.82,0.66,1.674,1.139,2.561,1.437c0.883,0.299,1.881,0.448,2.983,0.448c1.268,0,2.245-0.236,2.941-0.707s1.04-1.139,1.04-2.001
		c0-0.722-0.324-1.268-0.97-1.637c-0.646-0.369-1.674-0.711-3.082-1.024c-1.343-0.282-2.44-0.607-3.294-0.978
		c-0.854-0.369-1.524-0.863-2.014-1.484c-0.489-0.619-0.733-1.415-0.733-2.389s0.261-1.833,0.779-2.579
		c0.521-0.745,1.264-1.326,2.216-1.742c0.957-0.416,2.06-0.625,3.307-0.625c1.185,0,2.295,0.182,3.331,0.542
		c1.036,0.361,1.897,0.871,2.594,1.531l-0.875,1.79c-0.774-0.645-1.573-1.119-2.394-1.425c-0.82-0.307-1.699-0.459-2.631-0.459
		c-1.219,0-2.172,0.255-2.867,0.765c-0.696,0.51-1.045,1.205-1.045,2.084c0,0.753,0.307,1.327,0.912,1.719
		c0.607,0.394,1.587,0.746,2.929,1.061c1.405,0.313,2.544,0.644,3.41,0.987c0.87,0.347,1.566,0.818,2.088,1.413
		c0.522,0.598,0.783,1.366,0.783,2.309c0,0.974-0.261,1.821-0.783,2.544c-0.521,0.722-1.268,1.283-2.241,1.683
		c-0.97,0.401-2.113,0.602-3.422,0.602C258.535,217.684,257.338,217.51,256.256,217.165"/>
	<polygon clip-path="url(#SVGID_2_)" fill="#565756" points="277.006,215.493 286.51,215.493 286.51,217.494 274.233,217.494 
		274.233,215.704 283.452,202.73 274.233,202.73 274.233,200.728 286.249,200.728 286.249,202.493 	"/>
	<path clip-path="url(#SVGID_2_)" fill="#565756" d="M297.99,216.634c-1.176-0.696-2.084-1.69-2.726-2.978
		c-0.638-1.287-0.957-2.802-0.957-4.545c0-1.758,0.314-3.281,0.944-4.568c0.634-1.287,1.541-2.276,2.727-2.967
		c1.185-0.691,2.577-1.037,4.172-1.037c1.612,0,3.004,0.346,4.181,1.037c1.177,0.69,2.084,1.68,2.714,2.967
		c0.634,1.287,0.948,2.802,0.948,4.545c0,1.758-0.314,3.281-0.948,4.568c-0.63,1.287-1.537,2.281-2.722,2.978
		c-1.186,0.7-2.578,1.049-4.173,1.049S299.168,217.334,297.99,216.634 M306.095,213.986c0.939-1.146,1.413-2.779,1.413-4.898
		c0-2.104-0.474-3.725-1.413-4.863c-0.94-1.137-2.254-1.707-3.944-1.707s-3.004,0.57-3.936,1.707
		c-0.934,1.139-1.396,2.76-1.396,4.863c0,2.119,0.467,3.752,1.408,4.898c0.941,1.146,2.25,1.719,3.924,1.719
		C303.841,215.705,305.154,215.132,306.095,213.986"/>
	<polygon clip-path="url(#SVGID_2_)" fill="#565756" points="340.285,200.728 342.676,200.728 336.73,217.495 334.691,217.495 
		330.138,204.543 325.568,217.495 323.529,217.495 317.604,200.728 320.091,200.728 324.619,214.057 329.289,200.728 
		331.087,200.752 335.686,214.127 	"/>
	<rect x="351.256" y="200.728" clip-path="url(#SVGID_2_)" fill="#565756" width="2.439" height="16.768"/>
	<path clip-path="url(#SVGID_2_)" fill="#565756" d="M366.719,216.635c-1.21-0.698-2.138-1.691-2.784-2.979
		c-0.646-1.286-0.97-2.809-0.97-4.567c0-1.742,0.323-3.258,0.97-4.546c0.646-1.285,1.574-2.274,2.784-2.966
		c1.21-0.69,2.627-1.037,4.255-1.037c1.152,0,2.224,0.178,3.211,0.53c0.986,0.354,1.819,0.868,2.499,1.543l-0.854,1.79
		c-0.788-0.644-1.566-1.111-2.333-1.402c-0.767-0.29-1.6-0.435-2.498-0.435c-1.758,0-3.112,0.565-4.064,1.694
		c-0.958,1.131-1.434,2.739-1.434,4.828c0,2.104,0.476,3.725,1.434,4.862c0.952,1.14,2.307,1.707,4.064,1.707
		c0.898,0,1.731-0.145,2.498-0.436c0.767-0.29,1.545-0.757,2.333-1.401l0.854,1.79c-0.68,0.675-1.513,1.189-2.499,1.542
		c-0.987,0.354-2.059,0.53-3.211,0.53C369.346,217.683,367.929,217.333,366.719,216.635"/>
	<path clip-path="url(#SVGID_2_)" fill="#565756" d="M398.203,217.495l-1.803-4.145h-8.53l-1.799,4.145h-2.489l7.511-16.768h2.063
		l7.537,16.768H398.203z M388.698,211.42h6.874l-3.435-7.983L388.698,211.42z"/>
	<path clip-path="url(#SVGID_2_)" fill="#565756" d="M411.416,216.635c-1.21-0.698-2.138-1.691-2.784-2.979
		c-0.651-1.286-0.974-2.809-0.974-4.567c0-1.742,0.322-3.258,0.974-4.546c0.646-1.285,1.574-2.274,2.784-2.966
		c1.205-0.69,2.627-1.037,4.251-1.037c1.155,0,2.225,0.178,3.211,0.53c0.99,0.354,1.823,0.868,2.502,1.543l-0.854,1.79
		c-0.791-0.644-1.57-1.111-2.332-1.402c-0.767-0.29-1.604-0.435-2.504-0.435c-1.752,0-3.106,0.565-4.063,1.694
		c-0.957,1.131-1.434,2.739-1.434,4.828c0,2.104,0.477,3.725,1.434,4.862c0.957,1.14,2.312,1.707,4.063,1.707
		c0.9,0,1.737-0.145,2.504-0.436c0.762-0.29,1.541-0.757,2.332-1.401l0.854,1.79c-0.679,0.675-1.512,1.189-2.502,1.542
		c-0.986,0.354-2.056,0.53-3.211,0.53C414.043,217.683,412.621,217.333,411.416,216.635"/>
	<polygon clip-path="url(#SVGID_2_)" fill="#565756" points="442.258,200.728 444.697,200.728 444.697,217.495 442.258,217.495 
		442.258,209.982 432.803,209.982 432.803,217.495 430.388,217.495 430.388,200.728 432.803,200.728 432.803,207.98 442.258,207.98 
			"/>
</g>
</svg>
